<svg xmlns:dc="http://purl.org/dc/elements/1.1/" xmlns:cc="http://creativecommons.org/ns#" xmlns:rdf="http://www.w3.org/1999/02/22-rdf-syntax-ns#" xmlns:svg="http://www.w3.org/2000/svg" xmlns="http://www.w3.org/2000/svg" xmlns:sodipodi="http://sodipodi.sourceforge.net/DTD/sodipodi-0.dtd" xmlns:inkscape="http://www.inkscape.org/namespaces/inkscape" viewBox="0 0 100 125" version="1.1" x="0px" y="0px"><g transform="translate(0,-952.36216)"><path style="color:#000000;font-style:normal;font-variant:normal;font-weight:normal;font-stretch:normal;font-size:medium;line-height:normal;font-family:sans-serif;text-indent:0;text-align:start;text-decoration:none;text-decoration-line:none;text-decoration-style:solid;text-decoration-color:#000000;letter-spacing:normal;word-spacing:normal;text-transform:none;direction:ltr;block-progression:tb;writing-mode:lr-tb;baseline-shift:baseline;text-anchor:start;white-space:normal;clip-rule:nonzero;display:inline;overflow:visible;visibility:visible;opacity:1;isolation:auto;mix-blend-mode:normal;color-interpolation:sRGB;color-interpolation-filters:linearRGB;solid-color:#000000;solid-opacity:1;fill:#000000;fill-opacity:1;fill-rule:nonzero;stroke:none;stroke-width:4;stroke-linecap:butt;stroke-linejoin:miter;stroke-miterlimit:4;stroke-dasharray:none;stroke-dashoffset:0;stroke-opacity:1;color-rendering:auto;image-rendering:auto;shape-rendering:auto;text-rendering:auto;enable-background:accumulate" d="m 49.999635,962.86541 c -21.7926,0 -39.50194,17.7094 -39.50195,39.50199 0,7.8034 2.27959,15.0763 6.19531,21.207 l 0.0234,0.035 c 0.31892,0.4981 0.64796,0.9881 0.98828,1.4707 0.19072,0.2745 0.38441,0.5467 0.58203,0.8164 0.0472,0.063 0.095,0.1263 0.14258,0.1894 0.20534,0.2767 0.40656,0.5569 0.61914,0.8281 l 0.004,0 0.004,0.01 c 0.15111,0.1904 0.31414,0.3711 0.46876,0.5586 9.1e-4,0 0.001,0 0.002,0 0.40183,0.4873 0.81549,0.9642 1.24023,1.4316 0.29661,0.3265 0.58916,0.6563 0.89649,0.9727 0.91703,0.9442 1.88005,1.8415 2.88672,2.6895 1.00733,0.8488 2.05748,1.6466 3.14453,2.3906 1.08681,0.7435 2.20963,1.4331 3.36523,2.0644 0.59801,0.3268 1.20452,0.6366 1.81836,0.9317 0.13098,0.063 0.26667,0.1179 0.39844,0.1797 0.44343,0.2071 0.88688,0.4147 1.33789,0.6054 0.006,0 0.0131,0.01 0.0195,0.01 2.39322,1.0135 4.90597,1.7953 7.51172,2.3223 0.002,4e-4 0.004,0 0.006,0 0.0551,0.011 0.11089,0.018 0.16601,0.029 0.57578,0.1138 1.15582,0.2182 1.74024,0.3066 0.33627,0.051 0.67419,0.088 1.01172,0.1309 0.31002,0.039 0.61749,0.084 0.92968,0.1152 0.019,0 0.0377,0.01 0.0566,0.01 l 0.002,0 c 0.54279,0.054 1.08654,0.09 1.63086,0.1211 0.0936,0.01 0.18554,0.017 0.27929,0.021 0.003,2e-4 0.007,-2e-4 0.01,0 0.66,0.034 1.32126,0.05 1.98242,0.051 0.013,0 0.026,0 0.0391,0 6.6e-4,0 0.001,0 0.002,0 10e-4,0 0.003,0 0.004,0 0.85959,-10e-5 1.7106,-0.039 2.55664,-0.094 0.0774,-0.01 0.15511,0 0.23243,-0.01 l 0.0332,0 0.0332,0 c 0.11413,-0.012 0.22773,-0.028 0.3418,-0.041 20.29713,-1.6354 36.29882,-18.646 36.29883,-39.3593 -10e-6,-21.79269 -17.70934,-39.50199 -39.50196,-39.50199 z m 0,4 c 19.63086,0 35.50195,15.8711 35.50196,35.50199 -10e-6,17.6562 -12.84129,32.2619 -29.70703,35.0234 -0.0435,-1.0156 -0.11848,-2.0295 -0.26172,-3.0332 -1.32137,-9.2579 -6.72293,-16.8371 -13.93164,-20.0566 3.91384,-2.5654 6.51368,-6.9975 6.51367,-12.0215 -4e-5,-7.89459 -6.40583,-14.34959 -14.27149,-14.34959 -7.86564,0 -14.27339,6.455 -14.27343,14.34959 -2e-5,5.0348 2.61253,9.4743 6.54101,12.0371 -2.65434,1.1875 -5.09436,2.9711 -7.17773,5.2539 -2.82387,-5.0951 -4.43555,-10.9565 -4.43555,-17.2031 10e-6,-19.63089 15.87111,-35.50199 35.50195,-35.50199 z m 13.95313,12.1738 c -1.45065,0 -2.83672,0.5056 -3.85352,1.3848 -1.01679,0.8792 -1.66664,2.0371 -2.11523,3.2871 -0.89718,2.5 -1.08204,5.5067 -1.08203,8.7559 0,3.3144 0.36146,6.3568 1.33594,8.81639 0.48723,1.2298 1.13641,2.3373 2.08789,3.1972 0.95148,0.86 2.25939,1.4141 3.62695,1.4141 1.36756,0 2.67547,-0.5541 3.62695,-1.4141 0.95148,-0.8599 1.60065,-1.9674 2.08789,-3.1972 0.97448,-2.45959 1.33594,-5.50199 1.33594,-8.81639 1e-5,-3.2492 -0.1829,-6.2559 -1.08008,-8.7559 -0.44859,-1.25 -1.09844,-2.4079 -2.11523,-3.2871 -1.0168,-0.8792 -2.40482,-1.3848 -3.85547,-1.3848 z m 0,4 c 0.63165,0 0.91762,0.1329 1.23828,0.4102 0.32066,0.2773 0.67327,0.7953 0.9668,1.6133 0.58705,1.6358 0.84571,4.3423 0.8457,7.4043 0,2.9967 -0.39055,5.6674 -1.05469,7.3437 -0.33206,0.83819 -0.72271,1.40469 -1.05078,1.70119 -0.32807,0.2965 -0.53934,0.3828 -0.94531,0.3828 -0.40597,0 -0.61529,-0.086 -0.94336,-0.3828 -0.32807,-0.2965 -0.72067,-0.863 -1.05273,-1.70119 -0.66414,-1.6763 -1.05469,-4.347 -1.05469,-7.3437 -1e-5,-3.062 0.25865,-5.7685 0.8457,-7.4043 0.29353,-0.818 0.64614,-1.336 0.9668,-1.6133 0.32065,-0.2773 0.60663,-0.4102 1.23828,-0.4102 z m -30.10938,8.8907 c 5.69039,0 10.27146,4.6033 10.27149,10.34959 2e-5,5.7462 -4.58107,10.3496 -10.27149,10.3496 -5.69041,0 -10.27345,-4.6034 -10.27343,-10.3496 3e-5,-5.74629 4.58306,-10.34959 10.27343,-10.34959 z m 30.10938,15.96479 c -3.51361,0 -6.10352,3.1825 -6.10352,6.7344 0,3.5519 2.58991,6.7343 6.10352,6.7344 3.51361,0 6.10353,-3.1825 6.10351,-6.7344 1e-5,-3.5519 -2.5899,-6.7344 -6.10351,-6.7344 z m 0,4 c 1.01927,0 2.10353,1.056 2.10351,2.7344 1e-5,1.6783 -1.08424,2.7344 -2.10351,2.7344 -1.01927,0 -2.10352,-1.0561 -2.10352,-2.7344 0,-1.6784 1.08425,-2.7344 2.10352,-2.7344 z m -30.13281,4.7324 c 0.007,0 0.0162,0 0.0234,0 8.58079,0 16.19436,7.5285 17.73047,18.291 0.136,0.953 0.17033,1.9203 0.20313,2.8867 -0.592,0.03 -1.18453,0.061 -1.77735,0.061 -0.46121,2e-4 -0.92198,-0.016 -1.38281,-0.033 -0.13018,-0.01 -0.26051,0 -0.39062,-0.01 -0.004,-2e-4 -0.008,2e-4 -0.0117,0 -0.58682,-0.029 -1.1731,-0.074 -1.75781,-0.1328 l -0.002,0 c -1.17724,-0.1182 -2.34824,-0.2941 -3.50781,-0.5293 -1.16028,-0.2352 -2.30846,-0.529 -3.43945,-0.8789 -1.13082,-0.3497 -2.24374,-0.7559 -3.33399,-1.2168 -1.09007,-0.461 -2.15671,-0.9755 -3.19531,-1.543 -1.03809,-0.5671 -2.0471,-1.1877 -3.02344,-1.8555 l -0.002,0 c -0.97651,-0.6684 -1.91929,-1.386 -2.82422,-2.1484 -0.90508,-0.7624 -1.77123,-1.5691 -2.5957,-2.418 -0.82228,-0.8465 -1.602,-1.7341 -2.33594,-2.6582 -0.3315,-0.4229 -0.62561,-0.873 -0.9375,-1.3105 3.39124,-4.1343 7.86525,-6.4879 12.56055,-6.5059 z"/></g><text x="0" y="115" fill="#000000" font-size="5px" font-weight="bold" font-family="'Helvetica Neue', Helvetica, Arial-Unicode, Arial, Sans-serif">Created by Bintang Anandhiya</text><text x="0" y="120" fill="#000000" font-size="5px" font-weight="bold" font-family="'Helvetica Neue', Helvetica, Arial-Unicode, Arial, Sans-serif">from the Noun Project</text></svg>