<svg xmlns="http://www.w3.org/2000/svg" xmlns:xlink="http://www.w3.org/1999/xlink" version="1.1" x="0px" y="0px" viewBox="0 0 90 112.5" enable-background="new 0 0 90 90" xml:space="preserve"><path d="M82.55957,36.95313c-0.73047-12.83398-12.23633-20.7168-23.63477-24.1123  c-13.59082-4.04785-30.93652-2.09473-42.18555,6.9873C7.33984,27.41602,4.10449,39.47852,11.40137,49.7334  c8.50098,11.94531,25.38965,15.32422,39.24121,13.96387c1.28418,4.16602,2.45508,8.49512,4.44531,12.33496  c3.65723,7.05078,9.41895,0.6377,10.92773-3.95605c1.67285-5.09668,3.34473-10.19238,5.01758-15.28809  c0.29492-0.89941,0.75977-0.65332,1.80273-1.4375c1.93359-1.45508,3.71289-3.1709,5.16113-5.11426  c2.74023-3.67676,4.25488-7.6123,4.5498-12.14355c0.03418-0.18164,0.05176-0.37402,0.04492-0.58301  C82.60059,37.31152,82.58789,37.12598,82.55957,36.95313z M73.20801,48.39258c-1.93555,2.28516-5.85645,3.59961-6.70605,6.53223  c-1.01855,3.51758-2.29102,6.98047-3.43359,10.45996c-0.58887,1.79688-1.17969,3.59375-1.76855,5.39063  c-1.00879,3.07422-1.85449,4.00098-3.10645,0.18848c-1.15332-3.51465-2.30762-7.0293-3.46094-10.54395  c-0.30762-0.9375-1.26172-1.93652-2.3584-1.7959c-12.2002,1.5752-25.67969-0.45313-34.875-9.26074  c-8.08691-7.74414-6.11035-18.40625,1.75195-25.31348c9.31445-8.18164,23.92188-9.5,35.56641-7.18652  c10.24805,2.03613,22.50977,8.93359,22.88379,20.64648C77.52734,41.72852,75.91211,45.2002,73.20801,48.39258z"/><text x="0" y="105" fill="#000000" font-size="5px" font-weight="bold" font-family="'Helvetica Neue', Helvetica, Arial-Unicode, Arial, Sans-serif">Created by iconcheese</text><text x="0" y="110" fill="#000000" font-size="5px" font-weight="bold" font-family="'Helvetica Neue', Helvetica, Arial-Unicode, Arial, Sans-serif">from the Noun Project</text></svg>