<svg xmlns:dc="http://purl.org/dc/elements/1.1/" xmlns:cc="http://creativecommons.org/ns#" xmlns:rdf="http://www.w3.org/1999/02/22-rdf-syntax-ns#" xmlns:svg="http://www.w3.org/2000/svg" xmlns="http://www.w3.org/2000/svg" xmlns:sodipodi="http://sodipodi.sourceforge.net/DTD/sodipodi-0.dtd" xmlns:inkscape="http://www.inkscape.org/namespaces/inkscape" version="1.1" x="0px" y="0px" viewBox="0 0 100 125"><g transform="translate(0,-952.36218)"><path style="font-size:medium;font-style:normal;font-variant:normal;font-weight:normal;font-stretch:normal;text-indent:0;text-align:start;text-decoration:none;line-height:normal;letter-spacing:normal;word-spacing:normal;text-transform:none;direction:ltr;block-progression:tb;writing-mode:lr-tb;text-anchor:start;baseline-shift:baseline;opacity:1;color:#000000;fill:#000000;fill-opacity:1;stroke:none;stroke-width:4;marker:none;visibility:visible;display:inline;overflow:visible;enable-background:accumulate;font-family:Sans;-inkscape-font-specification:Sans" d="M 50 30 C 45.605412 30 42 33.60541 42 38 C 42 42.39458 45.605403 46 50 46 C 54.394597 46 58 42.39458 58 38 C 58 33.60541 54.394588 30 50 30 z M 50 34 C 52.23283 34 54 35.76717 54 38 C 54 40.2328 52.232821 42 50 42 C 47.767179 42 46 40.2328 46 38 C 46 35.76717 47.76717 34 50 34 z M 31 35 C 27.157694 35 24 38.1577 24 42 C 24 45.84228 27.15768 49 31 49 C 34.84232 49 38 45.84228 38 42 C 38 38.1577 34.842306 35 31 35 z M 69 35 C 65.157694 35 62 38.1577 62 42 C 62 45.84228 65.15768 49 69 49 C 72.84232 49 76 45.84228 76 42 C 76 38.1577 72.842306 35 69 35 z M 31 39 C 32.680542 39 34 40.31946 34 42 C 34 43.6805 32.680528 45 31 45 C 29.319472 45 28 43.6805 28 42 C 28 40.31946 29.319458 39 31 39 z M 69 39 C 70.680542 39 72 40.31946 72 42 C 72 43.6805 70.680528 45 69 45 C 67.319472 45 66 43.6805 66 42 C 66 40.31946 67.319458 39 69 39 z M 50 48 C 46.028231 48 42.451666 49.0798 39.75 50.75 C 39.048107 51.183918 38.401736 51.66973 37.8125 52.1875 C 35.843372 51.459577 33.605223 51 31.1875 51 C 27.519306 51 24.376576 51.9941 22.03125 53.5625 C 19.685924 55.1309 18 57.3119 18 59.875 L 18 62 L 13 62 L 13 66 L 35 66 L 35 68 L 35 70 L 37 70 L 63 70 L 65 70 L 65 68 L 65 66 L 87 66 L 87 62 L 82 62 L 82 59.875 C 82 57.3119 80.314076 55.1309 77.96875 53.5625 C 75.623424 51.9941 72.480694 51 68.8125 51 C 66.394777 51 64.156628 51.459577 62.1875 52.1875 C 61.598264 51.66973 60.951893 51.183918 60.25 50.75 C 57.548334 49.0798 53.971768 48 50 48 z M 50 52 C 53.230193 52 56.158406 52.92125 58.15625 54.15625 C 60.154094 55.39135 61 56.85955 61 57.59375 L 61 66 L 39 66 L 39 57.59375 C 39 56.85955 39.845906 55.39135 41.84375 54.15625 C 43.841594 52.92125 46.769806 52 50 52 z M 31.1875 55 C 32.68123 55 34.092316 55.233822 35.375 55.59375 C 35.147183 56.231375 35 56.88521 35 57.59375 L 35 62 L 22 62 L 22 59.875 C 22 59.2222 22.643476 57.9494 24.25 56.875 C 25.856524 55.8006 28.263089 55 31.1875 55 z M 68.8125 55 C 71.736911 55 74.143476 55.8006 75.75 56.875 C 77.356524 57.9494 78 59.2222 78 59.875 L 78 62 L 65 62 L 65 57.59375 C 65 56.88521 64.852817 56.231375 64.625 55.59375 C 65.907684 55.233822 67.31877 55 68.8125 55 z " transform="translate(0,952.36218)"/></g><text x="0" y="115" fill="#000000" font-size="5px" font-weight="bold" font-family="'Helvetica Neue', Helvetica, Arial-Unicode, Arial, Sans-serif">Created by throwaway icons</text><text x="0" y="120" fill="#000000" font-size="5px" font-weight="bold" font-family="'Helvetica Neue', Helvetica, Arial-Unicode, Arial, Sans-serif">from the Noun Project</text></svg>